  0
SECTION
  2
HEADER
  9
$ACADVER
  1
AC1009
  0
ENDSEC
  0
SECTION
  2
BLOCKS
  0
BLOCK
  8
0
  2
*D0
 70
65
 10
0.0
 20
0.0
  0
LINE
  5
1
  8
0
 10
0.0
 20
10.0
 11
100.0
 21
10.0
  0
ENDBLK
  8
0
  0
ENDSEC
  0
SECTION
  2
ENTITIES
  0
DIMENSION
  5
10
  8
0
  2
*D0
 10
0.0
 20
10.0
 11
50.0
 21
10.0
 70
0
 13
0.0
 23
0.0
 14
100.0
 24
0.0
  0
DIMENSION
  5
11
  8
0
  2
*D0
 10
0.0
 20
0.0
 11
30.0
 21
30.0
 70
4
 15
70.7106781186548
 25
70.7106781186548
  0
ENDSEC
  0
EOF
